<?xml version="1.0" encoding="utf-8"?>
<!-- Generator: Adobe Illustrator 19.2.0, SVG Export Plug-In . SVG Version: 6.00 Build 0)  -->
<svg version="1.1" id="Capa_1" xmlns="http://www.w3.org/2000/svg" xmlns:xlink="http://www.w3.org/1999/xlink" x="0px" y="0px"
	 viewBox="0 0 444.8 423.4" style="enable-background:new 0 0 444.8 423.4;" xml:space="preserve">
<g>
	<path d="M434.3,175l-21.4-21.4c-7.4-7-16.1-10.6-26-10.6c-10.1,0-18.7,3.5-25.7,10.6l-83.9,83.9v-201c0-9.9-3.6-18.5-10.9-25.7
		C259.1,3.6,250.6,0,240.7,0h-36.5c-9.9,0-18.5,3.6-25.7,10.9c-7.2,7.2-10.9,15.8-10.9,25.7v201l-83.9-83.9
		c-7-7-15.6-10.6-25.7-10.6c-9.9,0-18.6,3.5-26,10.6L10.9,175C3.6,182.2,0,190.9,0,201c0,10.3,3.6,18.8,10.8,25.7l185.9,186.1
		c7,7,15.6,10.6,25.7,10.6c9.9,0,18.6-3.5,26-10.6l185.9-186.1c7-7,10.6-15.6,10.6-25.7C444.8,191.1,441.3,182.4,434.3,175z"/>
</g>
</svg>
