<?xml version="1.0" encoding="utf-8"?>
<!-- Generator: Adobe Illustrator 19.2.0, SVG Export Plug-In . SVG Version: 6.00 Build 0)  -->
<svg version="1.1" id="Capa_1" xmlns="http://www.w3.org/2000/svg" xmlns:xlink="http://www.w3.org/1999/xlink" x="0px" y="0px"
	 viewBox="0 0 444.8 423.4" style="enable-background:new 0 0 444.8 423.4;" xml:space="preserve">
<g>
	<path d="M10.6,248.4L32,269.8c7.4,7,16.1,10.6,26,10.6c10.1,0,18.7-3.5,25.7-10.6l83.9-83.9v201c0,9.9,3.6,18.5,10.9,25.7
		c7.2,7.2,15.8,10.9,25.7,10.9h36.5c9.9,0,18.5-3.6,25.7-10.9c7.2-7.2,10.9-15.8,10.9-25.7v-201l83.9,83.9c7,7,15.6,10.6,25.7,10.6
		c9.9,0,18.6-3.5,26-10.6l21.1-21.4c7.2-7.2,10.9-15.9,10.9-26c0-10.3-3.6-18.8-10.8-25.7L248.1,10.6c-7-7-15.6-10.6-25.7-10.6
		c-9.9,0-18.6,3.5-26,10.6L10.6,196.7c-7,7-10.6,15.6-10.6,25.7C0,232.3,3.5,241,10.6,248.4z"/>
</g>
</svg>
